<?xml version="1.0" encoding="UTF-8"?>
<svg version="1.1" xmlns="http://www.w3.org/2000/svg" width="500" height="500">
<path d="M0 0 C165 0 330 0 500 0 C500 165 500 330 500 500 C335 500 170 500 0 500 C0 335 0 170 0 0 Z " fill="#FEFEFE" transform="translate(0,0)"/>
<path d="M0 0 C3.98758972 1.50115479 7.46438431 3.54701975 11.0625 5.8125 C12.44598633 6.63331055 12.44598633 6.63331055 13.85742188 7.47070312 C23.65556129 13.36673888 23.65556129 13.36673888 25.6875 19.75 C28.22145904 26.41626147 32.62643923 30.38350213 39 33.4375 C39.99 33.7159375 39.99 33.7159375 41 34 C41.44525862 40.23362064 40.80514675 44.85600532 37 50 C34.46150623 52.70530907 31.80479019 55.28693069 29.06542969 57.78808594 C27.63977534 59.12039912 26.31217165 60.55578592 25 62 C25 63.32 25 64.64 25 66 C25.92748047 66.00410889 26.85496094 66.00821777 27.81054688 66.01245117 C31.28526242 66.03958382 34.75825816 66.08882446 38.23242188 66.15258789 C39.72970876 66.17564043 41.22715486 66.19013346 42.72460938 66.19555664 C58.71644411 66.26485459 58.71644411 66.26485459 65 72 C65.6909375 72.5878125 66.381875 73.175625 67.09375 73.78125 C71.1331482 78.71829224 71.72569527 83.08419075 71.89453125 89.36328125 C70.50559195 95.010017 67.26124707 99.24235016 64 104 C63.23999411 105.13555232 62.48166222 106.27222648 61.72485352 107.40991211 C59.70718677 110.43746637 57.67192627 113.45264229 55.62890625 116.46313477 C54.36631441 118.32531023 53.10888146 120.19090219 51.8515625 122.05664062 C51.0341651 123.26323153 50.21646746 124.46961911 49.3984375 125.67578125 C48.67317871 126.74739502 47.94791992 127.81900879 47.20068359 128.9230957 C41.10313735 137.44843132 41.10313735 137.44843132 38 139 C34.00609564 139.53252058 32.48258758 139.35389756 29.1875 136.9375 C26.5299735 133.36882155 25.92334531 131.4459719 26 127 C27.5 123.875 27.5 123.875 28.640625 122.11328125 C31.36892306 117.87187535 33.63920393 113.35509723 35.99414062 108.89892578 C36.696942 107.5721323 37.4043505 106.24777353 38.11523438 104.92529297 C39.25831138 102.79099936 40.38095559 100.64697511 41.5 98.5 C41.86254883 97.82976807 42.22509766 97.15953613 42.59863281 96.46899414 C44.66872005 92.43801219 45.11896857 90.33832663 44 86 C43.09917191 85.99120064 43.09917191 85.99120064 42.18014526 85.98222351 C35.91796652 85.91818783 29.65629685 85.83374178 23.39453125 85.73754883 C21.05898763 85.70433667 18.72336447 85.67629324 16.38769531 85.65356445 C13.02634855 85.61995099 9.66572831 85.56762997 6.3046875 85.51171875 C5.26384003 85.50532883 4.22299255 85.4989389 3.15060425 85.49235535 C-3.02740173 85.36764296 -7.87563354 84.91203088 -12.609375 80.5 C-16.79092703 75.00097267 -18.72329017 71.95229943 -18.55078125 65.015625 C-17.49649912 59.2432434 -13.75471182 55.3144286 -10 51 C-9.46455566 50.37416016 -8.92911133 49.74832031 -8.37744141 49.10351562 C-5.05237635 45.21724629 -1.6947293 41.36273701 1.70654297 37.54296875 C4.62205265 34.06504855 5.40957488 31.42818842 6 27 C5.4225 26.731875 4.845 26.46375 4.25 26.1875 C2 25 2 25 0.1875 23.375 C-3.06041497 21.33345345 -5.2088689 21.59394682 -9 22 C-11.57211554 23.39218963 -13.67754646 25.20747489 -15.875 27.125 C-17.09988615 28.13614872 -18.32644745 29.14527166 -19.5546875 30.15234375 C-20.1434668 30.64202637 -20.73224609 31.13170898 -21.33886719 31.63623047 C-29.80346288 38.58555903 -29.80346288 38.58555903 -35.3125 39.625 C-38.6454399 38.8498977 -39.89290547 37.6533783 -42 35 C-43.45147903 32.09704195 -43.37239025 30.22738221 -43 27 C-39.6184668 21.75279331 -34.76231942 18.24261913 -29.91796875 14.37890625 C-26.23684683 11.37783095 -22.76057743 8.18461907 -19.2890625 4.9453125 C-13.0993482 -0.31488839 -7.97497622 -1.16751602 0 0 Z " fill="#050505" transform="translate(286,165)"/>
<path d="M0 0 C-4.1224296 9.09924876 -10.65058257 15.3985811 -19.4921875 19.7578125 C-26.70653929 23.33127647 -30.35185357 28.98890426 -34 36 C-36.74715894 44.24147682 -36.16451225 55.96310575 -32.3984375 63.7890625 C-27.69282769 71.2286579 -21.88808627 77.2542549 -13.5 80.25 C-3.79770013 82.29454595 6.35744221 82.16801598 15 77 C22.87105048 71.52558348 27.63251614 65.0889018 29.7421875 55.6953125 C30.23795827 52.80897584 30.62843805 49.90493885 31 47 C35.95 47 40.9 47 46 47 C46.97112489 58.81535277 43.31422726 69.11671381 36.1875 78.5 C32.26631156 83.0048768 27.92390024 86.63952794 23 90 C22.43796875 90.39960938 21.8759375 90.79921875 21.296875 91.2109375 C11.55172051 97.502712 -1.07901089 98.31698373 -12.2421875 96.4609375 C-16.69827226 95.44970629 -20.20291933 94.53300967 -24.03833008 91.96826172 C-28.64714196 89.3098639 -33.02614847 89.43235442 -38.23828125 89.4609375 C-39.68124825 89.44324814 -39.68124825 89.44324814 -41.15336609 89.42520142 C-44.20657791 89.39006836 -47.25910282 89.38077976 -50.3125 89.375 C-53.38354472 89.35867104 -56.45428388 89.33670935 -59.52519226 89.30337524 C-61.43153477 89.28369938 -63.33801811 89.27441529 -65.24446106 89.27645874 C-66.10262924 89.26949982 -66.96079742 89.26254089 -67.8449707 89.25537109 C-68.60107132 89.25411224 -69.35717194 89.25285339 -70.13618469 89.2515564 C-72 89 -72 89 -74 87 C-74.1875 84.4375 -74.1875 84.4375 -74 82 C-72.04901915 80.04901915 -68.35325071 80.74584892 -65.68359375 80.68359375 C-64.95253922 80.66281265 -64.22148468 80.64203156 -63.46827698 80.62062073 C-61.12478344 80.55504976 -58.78117461 80.49620568 -56.4375 80.4375 C-54.85220145 80.39432192 -53.26691471 80.35070787 -51.68164062 80.30664062 C-47.78787963 80.1993608 -43.89400228 80.0981151 -40 80 C-41.49377301 76.90120801 -41.49377301 76.90120801 -44 74 C-47.44635308 73.09957196 -47.44635308 73.09957196 -51.35546875 73.23046875 C-52.05771072 73.21913406 -52.7599527 73.20779938 -53.48347473 73.19612122 C-55.71890713 73.16545073 -57.95192886 73.17523118 -60.1875 73.1875 C-62.43300402 73.17334414 -64.67826086 73.15101029 -66.92366028 73.12532043 C-68.95317454 73.10630986 -70.98284926 73.10773566 -73.01245117 73.11010742 C-76 73 -76 73 -77 72 C-77.1875 69.5625 -77.1875 69.5625 -77 67 C-75 65 -75 65 -72.38623047 64.77294922 C-71.30744629 64.78342285 -70.22866211 64.79389648 -69.1171875 64.8046875 C-67.36728516 64.81435547 -67.36728516 64.81435547 -65.58203125 64.82421875 C-64.35871094 64.84097656 -63.13539063 64.85773438 -61.875 64.875 C-60.64394531 64.88402344 -59.41289062 64.89304687 -58.14453125 64.90234375 C-55.09616185 64.92597452 -52.04817618 64.95891946 -49 65 C-49.495 61.535 -49.495 61.535 -50 58 C-50.84304687 58.02320313 -51.68609375 58.04640625 -52.5546875 58.0703125 C-54.19824219 58.09738281 -54.19824219 58.09738281 -55.875 58.125 C-56.96554688 58.14820313 -58.05609375 58.17140625 -59.1796875 58.1953125 C-62 58 -62 58 -64 56 C-63.44444444 51.44444444 -63.44444444 51.44444444 -62 50 C-60.14712498 49.92773498 -58.29166122 49.9161878 -56.4375 49.9375 C-55.42558594 49.94652344 -54.41367188 49.95554687 -53.37109375 49.96484375 C-52.19740234 49.98224609 -52.19740234 49.98224609 -51 50 C-51 47.36 -51 44.72 -51 42 C-51.96413818 42.00523682 -52.92827637 42.01047363 -53.92163086 42.01586914 C-57.48672564 42.03392118 -61.05181636 42.04543274 -64.61694336 42.05493164 C-66.16219766 42.0599714 -67.70744716 42.0668032 -69.25268555 42.07543945 C-71.46925029 42.08752076 -73.68575218 42.09323173 -75.90234375 42.09765625 C-76.94454323 42.10539818 -76.94454323 42.10539818 -78.00779724 42.11329651 C-79.6722933 42.11349277 -81.33665499 42.06189129 -83 42 C-84 41 -84 41 -84.1875 38.5625 C-84 36 -84 36 -82 34 C-79.49079154 33.82504394 -77.09375059 33.76830431 -74.5859375 33.8046875 C-73.85629791 33.8075174 -73.12665833 33.81034729 -72.37490845 33.81326294 C-70.04143972 33.82446998 -67.70835297 33.8495749 -65.375 33.875 C-63.79427637 33.88502915 -62.21354673 33.89415511 -60.6328125 33.90234375 C-56.75506086 33.92441095 -52.87759522 33.95894385 -49 34 C-48.34 31.69 -47.68 29.38 -47 27 C-48.05960938 27.02320313 -49.11921875 27.04640625 -50.2109375 27.0703125 C-51.5989513 27.08906944 -52.9869727 27.10726972 -54.375 27.125 C-55.42300781 27.15013672 -55.42300781 27.15013672 -56.4921875 27.17578125 C-58.32897486 27.19344267 -60.16601963 27.10303261 -62 27 C-62.66 26.34 -63.32 25.68 -64 25 C-63.44444444 20.44444444 -63.44444444 20.44444444 -62 19 C-60.48541818 18.90352744 -58.96684532 18.86801506 -57.44921875 18.859375 C-56.52302734 18.84003906 -55.59683594 18.82070312 -54.64257812 18.80078125 C-52.68444905 18.76713197 -50.72599455 18.74871371 -48.76757812 18.74609375 C-43.12450565 18.74715987 -43.12450565 18.74715987 -38.64453125 15.703125 C-38.10183594 14.81109375 -37.55914062 13.9190625 -37 13 C-25.65127378 3.14452723 -15.00125356 -0.99860416 0 0 Z " fill="#090909" transform="translate(278,207)"/>
<path d="M0 0 C3.34800196 1.44890348 5.53670321 3.3408266 8 6 C8.52464844 6.495 9.04929687 6.99 9.58984375 7.5 C13.67772 12.02950277 13.72589694 16.92949024 13.48828125 22.8359375 C12.56520033 28.81750188 9.78367951 32.34683362 5.4375 36.375 C-0.90453026 40.60302017 -6.43515475 40.87669055 -14 40 C-19.70593462 37.9128999 -23.15811905 34.35585256 -26 29 C-28.30053666 23.70876568 -29.03369904 18.48055626 -27.3828125 12.921875 C-22.30868676 1.15708788 -11.80502643 -1.34766493 0 0 Z " fill="#050505" transform="translate(340,156)"/>
<path d="M0 0 C14 0 14 0 17.4375 2.125 C19 5 19 5 18.9375 8.125 C18 11 18 11 16 14 C16.495 14.37125 16.99 14.7425 17.5 15.125 C19 17 19 17 19.5 19.875 C19 23 19 23 17.375 25.875 C14 28 14 28 0 28 C0 18.76 0 9.52 0 0 Z " fill="#141414" transform="translate(279,316)"/>
<path d="M0 0 C5.57894737 3.15789474 5.57894737 3.15789474 7 6 C7.20411054 8.95377112 7.32382545 11.85600689 7.375 14.8125 C7.41238281 15.62009766 7.44976562 16.42769531 7.48828125 17.25976562 C7.55213033 21.59086166 7.40706412 23.44897418 4.7578125 27.03515625 C1.99629869 29.00263705 0.8258349 29.68355343 -2.5 29.625 C-3.2321875 29.63789063 -3.964375 29.65078125 -4.71875 29.6640625 C-8.34360774 28.60888131 -9.7617347 27.02301117 -12 24 C-12.74243056 20.81278321 -12.74492493 17.76073747 -12.6875 14.5 C-12.71521484 13.65824219 -12.74292969 12.81648438 -12.77148438 11.94921875 C-12.74801077 5.98692295 -12.74801077 5.98692295 -10.72119141 3.31274414 C-7.16801821 0.22228675 -4.63983657 -0.86996936 0 0 Z " fill="#F9F9F9" transform="translate(188,315)"/>
<path d="M0 0 C2.3925 -0.103125 4.785 -0.20625 7.25 -0.3125 C7.99668945 -0.35802002 8.74337891 -0.40354004 9.51269531 -0.45043945 C13.24505071 -0.52823868 14.71582667 -0.26272628 17.484375 2.296875 C19 5 19 5 19 8.5625 C17.94043189 12.20476538 16.91261932 13.65111345 14 16 C14.3609375 16.69867188 14.721875 17.39734375 15.09375 18.1171875 C15.5578125 19.02726562 16.021875 19.93734375 16.5 20.875 C16.9640625 21.77992188 17.428125 22.68484375 17.90625 23.6171875 C19 26 19 26 19 28 C18.01 28 17.02 28 16 28 C15.64808594 27.14535156 15.29617188 26.29070312 14.93359375 25.41015625 C12.57882402 19.2862563 12.57882402 19.2862563 8.04296875 14.98046875 C5.92717014 14.66198876 5.92717014 14.66198876 3 15 C3 19.29 3 23.58 3 28 C2.01 28 1.02 28 0 28 C0 18.76 0 9.52 0 0 Z " fill="#0A0A0A" transform="translate(354,316)"/>
<path d="M0 0 C2.3925 -0.0825 4.785 -0.165 7.25 -0.25 C7.99668945 -0.28641602 8.74337891 -0.32283203 9.51269531 -0.36035156 C12.92283239 -0.41721775 14.69519275 -0.2284839 17.44921875 1.8359375 C19 4 19 4 19.5625 6.875 C18.791155 11.16025002 16.97932689 12.87170676 14 16 C14.3609375 16.69867188 14.721875 17.39734375 15.09375 18.1171875 C15.5578125 19.02726562 16.021875 19.93734375 16.5 20.875 C16.9640625 21.77992188 17.428125 22.68484375 17.90625 23.6171875 C19 26 19 26 19 28 C18.01 28 17.02 28 16 28 C15.16209211 26.21046815 14.32980604 24.41830305 13.5 22.625 C13.0359375 21.62726563 12.571875 20.62953125 12.09375 19.6015625 C11 17 11 17 11 15 C8.36 15 5.72 15 3 15 C3 19.29 3 23.58 3 28 C2.01 28 1.02 28 0 28 C0 18.76 0 9.52 0 0 Z " fill="#131313" transform="translate(403,316)"/>
<path d="M0 0 C2.3925 -0.0825 4.785 -0.165 7.25 -0.25 C7.99668945 -0.28641602 8.74337891 -0.32283203 9.51269531 -0.36035156 C12.92283239 -0.41721775 14.69519275 -0.2284839 17.44921875 1.8359375 C19 4 19 4 19.5625 6.875 C18.791155 11.16025002 16.97932689 12.87170676 14 16 C14.3609375 16.69867188 14.721875 17.39734375 15.09375 18.1171875 C15.5578125 19.02726562 16.021875 19.93734375 16.5 20.875 C16.9640625 21.77992188 17.428125 22.68484375 17.90625 23.6171875 C19 26 19 26 19 28 C18.01 28 17.02 28 16 28 C15.16209211 26.21046815 14.32980604 24.41830305 13.5 22.625 C13.0359375 21.62726563 12.571875 20.62953125 12.09375 19.6015625 C11 17 11 17 11 15 C8.36 15 5.72 15 3 15 C3 19.29 3 23.58 3 28 C2.01 28 1.02 28 0 28 C0 18.76 0 9.52 0 0 Z " fill="#131313" transform="translate(329,316)"/>
<path d="M0 0 C1.65 0 3.3 0 5 0 C6.34315504 3.91336793 7.67280672 7.83119282 9 11.75 C9.3815625 12.86117188 9.763125 13.97234375 10.15625 15.1171875 C10.5171875 16.18710937 10.878125 17.25703125 11.25 18.359375 C11.75273437 19.83615723 11.75273437 19.83615723 12.265625 21.34277344 C13 24 13 24 13 28 C12.01 28 11.02 28 10 28 C9.505 25.525 9.505 25.525 9 23 C4.71 23 0.42 23 -4 23 C-4.33 24.65 -4.66 26.3 -5 28 C-5.99 28 -6.98 28 -8 28 C-6.43618819 18.3043668 -3.20450331 9.25073597 0 0 Z " fill="#2D2D2D" transform="translate(434,316)"/>
<path d="M0 0 C1.65 0.33 3.3 0.66 5 1 C6.34065238 4.93504649 7.67126071 8.87341646 9 12.8125 C9.3815625 13.93205078 9.763125 15.05160156 10.15625 16.20507812 C10.5171875 17.27822266 10.878125 18.35136719 11.25 19.45703125 C11.58515625 20.44678955 11.9203125 21.43654785 12.265625 22.45629883 C13 25 13 25 13 28 C12.01 28 11.02 28 10 28 C9.505 25.525 9.505 25.525 9 23 C6.87420987 23.05988141 4.74921587 23.14862744 2.625 23.25 C1.44164062 23.29640625 0.25828125 23.3428125 -0.9609375 23.390625 C-4.11291753 23.65648799 -4.11291753 23.65648799 -5.4140625 26.046875 C-5.60742188 26.69140625 -5.80078125 27.3359375 -6 28 C-6.66 28 -7.32 28 -8 28 C-7.37869771 21.69071903 -5.50010374 16.03792431 -3.4375 10.0625 C-2.9434668 8.6074707 -2.9434668 8.6074707 -2.43945312 7.12304688 C-1.6317552 4.74677616 -0.81849052 2.37257031 0 0 Z " fill="#252525" transform="translate(311,316)"/>
<path d="M0 0 C1.32 0 2.64 0 4 0 C5.34315504 3.91336793 6.67280672 7.83119282 8 11.75 C8.3815625 12.86117188 8.763125 13.97234375 9.15625 15.1171875 C9.5171875 16.18710937 9.878125 17.25703125 10.25 18.359375 C10.75273438 19.83615723 10.75273438 19.83615723 11.265625 21.34277344 C12 24 12 24 12 28 C11.01 27.67 10.02 27.34 9 27 C8.67 26.01 8.34 25.02 8 24 C3.71 23.67 -0.58 23.34 -5 23 C-5.33 24.65 -5.66 26.3 -6 28 C-6.99 28 -7.98 28 -9 28 C-7.6893114 21.668171 -6.01923958 15.61859223 -3.9375 9.5 C-3.5343457 8.28570312 -3.5343457 8.28570312 -3.12304688 7.046875 C-1.13384956 1.13384956 -1.13384956 1.13384956 0 0 Z " fill="#191919" transform="translate(61,316)"/>
<path d="M0 0 C0.7027002 -0.00191345 1.40540039 -0.0038269 2.12939453 -0.00579834 C3.61556354 -0.00715975 5.10174445 -0.00346632 6.58789062 0.00488281 C8.86615646 0.01558346 11.14363377 0.00498661 13.421875 -0.0078125 C14.86458508 -0.0064909 16.30729466 -0.00392849 17.75 0 C19.06742188 0.00225586 20.38484375 0.00451172 21.7421875 0.00683594 C24.875 0.265625 24.875 0.265625 26.875 2.265625 C27.0625 4.828125 27.0625 4.828125 26.875 7.265625 C24.90758372 9.23304128 21.09932269 8.42950707 18.41015625 8.43359375 C17.2873954 8.43858635 17.2873954 8.43858635 16.14195251 8.44367981 C14.55566016 8.44875193 12.9693571 8.45108805 11.38305664 8.45092773 C8.95115631 8.45311273 6.51971051 8.47126081 4.08789062 8.49023438 C2.54948072 8.49316849 1.01106866 8.49515317 -0.52734375 8.49609375 C-1.62271706 8.50687202 -1.62271706 8.50687202 -2.74021912 8.51786804 C-7.89617693 8.49444807 -7.89617693 8.49444807 -10.125 6.265625 C-9.32262209 -0.15339826 -5.727258 0.00980695 0 0 Z " fill="#101010" transform="translate(162.125,240.734375)"/>
<path d="M0 0 C1.0374939 0.00303635 1.0374939 0.00303635 2.09594727 0.00613403 C2.80243408 0.00517731 3.5089209 0.00422058 4.23681641 0.00323486 C5.7331552 0.00255321 7.22949694 0.00440649 8.72583008 0.00857544 C11.02374884 0.01392396 13.32147213 0.00863003 15.61938477 0.00222778 C17.06990603 0.00288857 18.52042718 0.00416974 19.97094727 0.00613403 C20.66260986 0.0041098 21.35427246 0.00208557 22.06689453 0 C26.91849503 0.0239943 26.91849503 0.0239943 28.03344727 1.13894653 C28.22094727 3.57644653 28.22094727 3.57644653 28.03344727 6.13894653 C25.20085151 8.97154228 23.30650067 8.39732914 19.34594727 8.40457153 C18.68763916 8.40648499 18.02933105 8.40839844 17.35107422 8.41036987 C15.95906187 8.41173103 14.5670368 8.40803936 13.17504883 8.39968872 C11.04162138 8.38898753 8.90903596 8.3995856 6.77563477 8.41238403 C5.4240704 8.41106243 4.07250657 8.4085 2.72094727 8.40457153 C1.48731445 8.40231567 0.25368164 8.40005981 -1.01733398 8.3977356 C-3.96655273 8.13894653 -3.96655273 8.13894653 -5.96655273 6.13894653 C-6.15405273 3.57644653 -6.15405273 3.57644653 -5.96655273 1.13894653 C-4.28981624 -0.53778996 -2.23800198 0.01106836 0 0 Z " fill="#111111" transform="translate(170.966552734375,287.8610534667969)"/>
<path d="M0 0 C4.52579404 1.13144851 4.72871136 1.50038496 7.015625 5.25390625 C7.80839844 6.53491211 7.80839844 6.53491211 8.6171875 7.84179688 C9.15601563 8.73962891 9.69484375 9.63746094 10.25 10.5625 C10.80429688 11.46419922 11.35859375 12.36589844 11.9296875 13.29492188 C13.2973639 15.52329118 14.65011696 17.76080722 16 20 C16.33 13.4 16.66 6.8 17 0 C17.99 0 18.98 0 20 0 C20 9.24 20 18.48 20 28 C15.47420596 26.86855149 15.27128864 26.49961504 12.984375 22.74609375 C12.45585937 21.89208984 11.92734375 21.03808594 11.3828125 20.15820312 C10.84398437 19.26037109 10.30515625 18.36253906 9.75 17.4375 C9.19570312 16.53580078 8.64140625 15.63410156 8.0703125 14.70507812 C6.7026361 12.47670882 5.34988304 10.23919278 4 8 C3.67 14.6 3.34 21.2 3 28 C2.01 28 1.02 28 0 28 C0 18.76 0 9.52 0 0 Z " fill="#151515" transform="translate(244,316)"/>
<path d="M0 0 C1.32 0 2.64 0 4 0 C5.55566406 1.8359375 5.55566406 1.8359375 7.015625 4.375 C7.80839844 5.72851562 7.80839844 5.72851562 8.6171875 7.109375 C9.15601563 8.06328125 9.69484375 9.0171875 10.25 10 C10.80429688 10.95390625 11.35859375 11.9078125 11.9296875 12.890625 C13.29973066 15.25276838 14.65158981 17.62544118 16 20 C16.33 13.4 16.66 6.8 17 0 C17.99 0 18.98 0 20 0 C20 9.24 20 18.48 20 28 C16 27 16 27 14.44433594 25.05053711 C13.96254883 24.2178833 13.48076172 23.38522949 12.984375 22.52734375 C12.45585937 21.62822266 11.92734375 20.72910156 11.3828125 19.80273438 C10.57457031 18.38444336 10.57457031 18.38444336 9.75 16.9375 C8.91855469 15.5134082 8.91855469 15.5134082 8.0703125 14.06054688 C6.70223472 11.71358585 5.34963407 9.35761549 4 7 C3.67 13.93 3.34 20.86 3 28 C2.01 28 1.02 28 0 28 C0 18.76 0 9.52 0 0 Z " fill="#141414" transform="translate(126,316)"/>
<path d="M0 0 C1.21880859 -0.01224609 2.43761719 -0.02449219 3.69335938 -0.03710938 C5.43649414 -0.04000977 5.43649414 -0.04000977 7.21484375 -0.04296875 C8.28726318 -0.04707764 9.35968262 -0.05118652 10.46459961 -0.05541992 C13.0625 0.1875 13.0625 0.1875 15.0625 2.1875 C14.50694444 6.74305556 14.50694444 6.74305556 13.0625 8.1875 C8.75602364 8.44092236 4.43804946 8.37272638 0.125 8.375 C-1.09380859 8.38724609 -2.31261719 8.39949219 -3.56835938 8.41210938 C-5.31149414 8.41500977 -5.31149414 8.41500977 -7.08984375 8.41796875 C-8.6984729 8.42413208 -8.6984729 8.42413208 -10.33959961 8.43041992 C-12.9375 8.1875 -12.9375 8.1875 -14.9375 6.1875 C-13.87751684 -2.50436188 -7.40312928 0.00390255 0 0 Z " fill="#111111" transform="translate(164.9375,256.8125)"/>
<path d="M0 0 C5.57894737 3.15789474 5.57894737 3.15789474 7 6 C7.20411054 8.95377112 7.32382545 11.85600689 7.375 14.8125 C7.41238281 15.62009766 7.44976562 16.42769531 7.48828125 17.25976562 C7.55213033 21.59086166 7.40706412 23.44897418 4.7578125 27.03515625 C1.99629869 29.00263705 0.8258349 29.68355343 -2.5 29.625 C-3.2321875 29.63789063 -3.964375 29.65078125 -4.71875 29.6640625 C-8.34360774 28.60888131 -9.7617347 27.02301117 -12 24 C-12.74243056 20.81278321 -12.74492493 17.76073747 -12.6875 14.5 C-12.71521484 13.65824219 -12.74292969 12.81648438 -12.77148438 11.94921875 C-12.74801077 5.98692295 -12.74801077 5.98692295 -10.72119141 3.31274414 C-7.16801821 0.22228675 -4.63983657 -0.86996936 0 0 Z M-7.65869141 4.265625 C-9.29732311 6.38445274 -9.3859516 7.47085546 -9.3984375 10.125 C-9.40230469 10.91390625 -9.40617188 11.7028125 -9.41015625 12.515625 C-9.39855469 13.33546875 -9.38695312 14.1553125 -9.375 15 C-9.38660156 15.81984375 -9.39820313 16.6396875 -9.41015625 17.484375 C-9.40628906 18.27328125 -9.40242187 19.0621875 -9.3984375 19.875 C-9.39505371 20.59429687 -9.39166992 21.31359375 -9.38818359 22.0546875 C-8.88673301 24.56761723 -8.01606265 25.45694351 -6 27 C-2.52786491 27.5171265 -0.75709863 27.52298676 2.16015625 25.5078125 C4.82052314 21.88157992 4.58882156 18.82306435 4.5 14.4375 C4.51546875 13.66986328 4.5309375 12.90222656 4.546875 12.11132812 C4.52847102 7.63193831 4.52847102 7.63193831 2.16015625 3.99609375 C-1.25038867 2.42341933 -4.54450465 1.88941892 -7.65869141 4.265625 Z " fill="#1C1C1C" transform="translate(188,315)"/>
<path d="M0 0 C1.07507813 -0.00128906 2.15015625 -0.00257813 3.2578125 -0.00390625 C4.38960937 -0.00003906 5.52140625 0.00382813 6.6875 0.0078125 C7.81929687 0.00394531 8.95109375 0.00007812 10.1171875 -0.00390625 C11.19226563 -0.00261719 12.26734375 -0.00132812 13.375 0 C14.86580078 0.00169189 14.86580078 0.00169189 16.38671875 0.00341797 C18.6875 0.1328125 18.6875 0.1328125 19.6875 1.1328125 C19.875 3.5703125 19.875 3.5703125 19.6875 6.1328125 C17.15695663 8.66335587 16.25201118 8.38964479 12.75 8.3984375 C11.77289063 8.40101563 10.79578125 8.40359375 9.7890625 8.40625 C8.76554688 8.39851562 7.74203125 8.39078125 6.6875 8.3828125 C5.66398438 8.39054688 4.64046875 8.39828125 3.5859375 8.40625 C2.60882813 8.40367187 1.63171875 8.40109375 0.625 8.3984375 C-0.27347656 8.39618164 -1.17195312 8.39392578 -2.09765625 8.39160156 C-4.3125 8.1328125 -4.3125 8.1328125 -6.3125 6.1328125 C-6.5 3.5703125 -6.5 3.5703125 -6.3125 1.1328125 C-4.59682208 -0.58286542 -2.33877265 0.00265425 0 0 Z " fill="#0E0E0E" transform="translate(189.3125,225.8671875)"/>
<path d="M0 0 C2.5625 1.8125 2.5625 1.8125 4 4 C4 5.32 4 6.64 4 8 C3.01 8 2.02 8 1 8 C0.87625 7.360625 0.7525 6.72125 0.625 6.0625 C0.41875 5.381875 0.2125 4.70125 0 4 C-2.98212913 2.50893543 -5.71609658 2.88058533 -9 3 C-10.29633621 4.06645115 -10.29633621 4.06645115 -10.0625 6.5625 C-10.041875 7.366875 -10.02125 8.17125 -10 9 C-9.07316406 9.49371094 -8.14632812 9.98742187 -7.19140625 10.49609375 C-5.98172045 11.14313499 -4.77208778 11.79027554 -3.5625 12.4375 C-2.95083984 12.76298828 -2.33917969 13.08847656 -1.70898438 13.42382812 C2.88671875 15.88671875 2.88671875 15.88671875 4 17 C4.46740995 22.79588336 4.46740995 22.79588336 4 25 C1.20790213 27.81759648 -1.02712349 28.45179813 -4.9375 28.5 C-8.82598133 28.38512611 -9.83730362 28.11714139 -13.125 25.75 C-15 23 -15 23 -15 19 C-14.01 19 -13.02 19 -12 19 C-11.566875 20.2065625 -11.566875 20.2065625 -11.125 21.4375 C-10.26737432 24.1326468 -10.26737432 24.1326468 -8 25 C-3.85496339 25.24787017 -3.85496339 25.24787017 0 24 C0 22.02 0 20.04 0 18 C-0.84304687 17.59007812 -1.68609375 17.18015625 -2.5546875 16.7578125 C-3.65039062 16.21898437 -4.74609375 15.68015625 -5.875 15.125 C-7.51082031 14.32449219 -7.51082031 14.32449219 -9.1796875 13.5078125 C-12 12 -12 12 -14 10 C-14.4375 6.625 -14.4375 6.625 -14 3 C-10.14387002 -1.97565159 -5.61737149 -1.6453868 0 0 Z " fill="#1C1C1C" transform="translate(223,316)"/>
<path d="M0 0 C5.94 0 11.88 0 18 0 C18 0.66 18 1.32 18 2 C13.05 2 8.1 2 3 2 C3 5.3 3 8.6 3 12 C6.63 12 10.26 12 14 12 C14 12.99 14 13.98 14 15 C10.37 15 6.74 15 3 15 C3 18.3 3 21.6 3 25 C7.95 25 12.9 25 18 25 C18 25.99 18 26.98 18 28 C12.06 28 6.12 28 0 28 C0 18.76 0 9.52 0 0 Z " fill="#1C1C1C" transform="translate(379,316)"/>
<path d="M0 0 C2.5625 1.8125 2.5625 1.8125 4 4 C4 5.32 4 6.64 4 8 C3.01 8 2.02 8 1 8 C0.62875 7.175 0.2575 6.35 -0.125 5.5 C-1.70668575 2.78250131 -1.70668575 2.78250131 -4.19140625 2.66796875 C-6.47848318 2.6858645 -8.72338443 2.78522495 -11 3 C-11.33425735 5.37374861 -11.33425735 5.37374861 -11 8 C-8.2582171 10.85602386 -4.46145356 12.29798684 -0.90234375 13.9375 C1.14915143 15.08330429 2.50873271 16.1859279 4 18 C4.51924297 21.48634568 4.39852706 23.31163508 2.625 26.375 C-1.44534396 28.89473674 -5.34881778 28.87914107 -10 28 C-13.125 25.75 -13.125 25.75 -15 23 C-15 21.68 -15 20.36 -15 19 C-14.01 19 -13.02 19 -12 19 C-11.566875 20.2065625 -11.566875 20.2065625 -11.125 21.4375 C-10.26737432 24.1326468 -10.26737432 24.1326468 -8 25 C-3.85496339 25.24787017 -3.85496339 25.24787017 0 24 C0.33425735 21.62625139 0.33425735 21.62625139 0 19 C-2.76357699 16.12127397 -6.61814148 14.64543919 -10.1953125 12.96484375 C-12 12 -12 12 -14 10 C-14.4375 6.625 -14.4375 6.625 -14 3 C-10.14387002 -1.97565159 -5.61737149 -1.6453868 0 0 Z " fill="#141414" transform="translate(466,316)"/>
<path d="M0 0 C0.98033203 -0.01224609 1.96066406 -0.02449219 2.97070312 -0.03710938 C3.90720703 -0.03904297 4.84371094 -0.04097656 5.80859375 -0.04296875 C6.67154053 -0.04707764 7.5344873 -0.05118652 8.42358398 -0.05541992 C10.5625 0.1875 10.5625 0.1875 12.5625 2.1875 C12.00694444 6.74305556 12.00694444 6.74305556 10.5625 8.1875 C9.01294441 8.28649523 7.45896327 8.31829524 5.90625 8.3203125 C4.49666016 8.32224609 4.49666016 8.32224609 3.05859375 8.32421875 C2.06988281 8.32035156 1.08117187 8.31648438 0.0625 8.3125 C-0.92621094 8.31636719 -1.91492188 8.32023437 -2.93359375 8.32421875 C-3.87332031 8.32292969 -4.81304687 8.32164062 -5.78125 8.3203125 C-6.64943359 8.31918457 -7.51761719 8.31805664 -8.41210938 8.31689453 C-10.4375 8.1875 -10.4375 8.1875 -11.4375 7.1875 C-11.5625 4.1875 -11.5625 4.1875 -11.4375 1.1875 C-9.07794489 -1.17205511 -3.16997174 0.00207595 0 0 Z " fill="#101010" transform="translate(183.4375,271.8125)"/>
<path d="M0 0 C0.98484375 -0.00128906 1.9696875 -0.00257813 2.984375 -0.00390625 C4.02078125 -0.00003906 5.0571875 0.00382812 6.125 0.0078125 C7.67960938 0.00201172 7.67960938 0.00201172 9.265625 -0.00390625 C10.25046875 -0.00261719 11.2353125 -0.00132812 12.25 0 C13.16007812 0.00112793 14.07015625 0.00225586 15.0078125 0.00341797 C17.125 0.1328125 17.125 0.1328125 18.125 1.1328125 C18.3125 3.5703125 18.3125 3.5703125 18.125 6.1328125 C15.67513068 8.58268182 14.987922 8.38912561 11.625 8.3984375 C10.738125 8.40101563 9.85125 8.40359375 8.9375 8.40625 C7.5453125 8.39464844 7.5453125 8.39464844 6.125 8.3828125 C5.196875 8.39054687 4.26875 8.39828125 3.3125 8.40625 C1.9821875 8.40238281 1.9821875 8.40238281 0.625 8.3984375 C-0.1896875 8.39618164 -1.004375 8.39392578 -1.84375 8.39160156 C-3.875 8.1328125 -3.875 8.1328125 -5.875 6.1328125 C-6.0625 3.5703125 -6.0625 3.5703125 -5.875 1.1328125 C-4.22105883 -0.52112867 -2.27184587 0.00281567 0 0 Z " fill="#0F0F0F" transform="translate(190.875,256.8671875)"/>
<path d="M0 0 C5.94 0 11.88 0 18 0 C18 0.66 18 1.32 18 2 C13.05 2 8.1 2 3 2 C3 5.63 3 9.26 3 13 C6.63 13 10.26 13 14 13 C14 13.66 14 14.32 14 15 C10.37 15 6.74 15 3 15 C3 18.63 3 22.26 3 26 C7.95 26 12.9 26 18 26 C18 26.66 18 27.32 18 28 C12.06 28 6.12 28 0 28 C0 18.76 0 9.52 0 0 Z " fill="#060606" transform="translate(102,316)"/>
<path d="M0 0 C0.69416016 -0.01224609 1.38832031 -0.02449219 2.10351562 -0.03710938 C3.92470901 -0.04239842 5.7453692 0.06580793 7.5625 0.1875 C8.2225 0.8475 8.8825 1.5075 9.5625 2.1875 C9.00694444 6.74305556 9.00694444 6.74305556 7.5625 8.1875 C5.07011431 8.31403198 2.61779559 8.37269825 0.125 8.375 C-0.91624023 8.39336914 -0.91624023 8.39336914 -1.97851562 8.41210938 C-3.79970901 8.41739842 -5.6203692 8.30919207 -7.4375 8.1875 C-8.0975 7.5275 -8.7575 6.8675 -9.4375 6.1875 C-8.60395461 -0.6475722 -6.21240276 0.00573629 0 0 Z " fill="#131313" transform="translate(157.4375,271.8125)"/>
<path d="M0 0 C1.588125 -0.061875 3.17625 -0.12375 4.8125 -0.1875 C6.15248047 -0.23970703 6.15248047 -0.23970703 7.51953125 -0.29296875 C10 0 10 0 11.80078125 1.35546875 C13.50731102 3.69569361 13.42408618 5.1727588 13 8 C11.80078125 9.64453125 11.80078125 9.64453125 10 11 C7.51953125 11.29296875 7.51953125 11.29296875 4.8125 11.1875 C3.224375 11.125625 1.63625 11.06375 0 11 C0 7.37 0 3.74 0 0 Z " fill="#EFEFEF" transform="translate(406,318)"/>
<path d="M0 0 C1.588125 -0.061875 3.17625 -0.12375 4.8125 -0.1875 C6.15248047 -0.23970703 6.15248047 -0.23970703 7.51953125 -0.29296875 C10 0 10 0 11.80078125 1.35546875 C13.50731102 3.69569361 13.42408618 5.1727588 13 8 C11.80078125 9.64453125 11.80078125 9.64453125 10 11 C7.51953125 11.29296875 7.51953125 11.29296875 4.8125 11.1875 C3.224375 11.125625 1.63625 11.06375 0 11 C0 7.37 0 3.74 0 0 Z " fill="#F0F0F0" transform="translate(357,318)"/>
<path d="M0 0 C1.588125 -0.061875 3.17625 -0.12375 4.8125 -0.1875 C6.15248047 -0.23970703 6.15248047 -0.23970703 7.51953125 -0.29296875 C10 0 10 0 11.80078125 1.35546875 C13.50731102 3.69569361 13.42408618 5.1727588 13 8 C11.80078125 9.64453125 11.80078125 9.64453125 10 11 C7.51953125 11.29296875 7.51953125 11.29296875 4.8125 11.1875 C3.224375 11.125625 1.63625 11.06375 0 11 C0 7.37 0 3.74 0 0 Z " fill="#EFEFEF" transform="translate(332,318)"/>
<path d="M0 0 C0.99 0 1.98 0 3 0 C3 8.25 3 16.5 3 25 C7.95 25 12.9 25 18 25 C18 25.99 18 26.98 18 28 C12.06 28 6.12 28 0 28 C0 18.76 0 9.52 0 0 Z " fill="#181818" transform="translate(79,316)"/>
<path d="M0 0 C1.79133978 -0.05391993 3.58313899 -0.09275571 5.375 -0.125 C6.37273437 -0.14820313 7.37046875 -0.17140625 8.3984375 -0.1953125 C11 0 11 0 13 2 C13.25 5 13.25 5 13 8 C11 10 11 10 8.3984375 10.1953125 C7.40070313 10.17210937 6.40296875 10.14890625 5.375 10.125 C3.87066406 10.09792969 3.87066406 10.09792969 2.3359375 10.0703125 C1.56507813 10.04710937 0.79421875 10.02390625 0 10 C0 6.7 0 3.4 0 0 Z " fill="#F6F6F6" transform="translate(282,331)"/>
<path d="M0 0 C1.588125 -0.061875 3.17625 -0.12375 4.8125 -0.1875 C6.15248047 -0.23970703 6.15248047 -0.23970703 7.51953125 -0.29296875 C10 0 10 0 11.8359375 1.31640625 C13 3 13 3 12.8125 6.125 C12.544375 7.07375 12.27625 8.0225 12 9 C9.47524538 10.26237731 7.68799534 10.09856404 4.875 10.0625 C3.26625 10.041875 1.6575 10.02125 0 10 C0 6.7 0 3.4 0 0 Z " fill="#F1F1F1" transform="translate(282,318)"/>
<path d="M0 0 C6.6 0 13.2 0 20 0 C20 0.66 20 1.32 20 2 C17.03 2 14.06 2 11 2 C11 10.58 11 19.16 11 28 C10.01 28 9.02 28 8 28 C8 19.42 8 10.84 8 2 C5.36 2 2.72 2 0 2 C0 1.34 0 0.68 0 0 Z " fill="#191919" transform="translate(29,316)"/>
<path d="M0 0 C6.27 0 12.54 0 19 0 C19 0.66 19 1.32 19 2 C16.36 2 13.72 2 11 2 C11 10.58 11 19.16 11 28 C10.01 28 9.02 28 8 28 C8 19.42 8 10.84 8 2 C5.36 2 2.72 2 0 2 C0 1.34 0 0.68 0 0 Z " fill="#1B1B1B" transform="translate(152,316)"/>
<path d="M0 0 C0.98871094 -0.01417969 1.97742188 -0.02835938 2.99609375 -0.04296875 C5.5625 0.1875 5.5625 0.1875 7.5625 2.1875 C7.00694444 6.74305556 7.00694444 6.74305556 5.5625 8.1875 C3.75322719 8.31237758 1.93853893 8.36320846 0.125 8.375 C-0.86371094 8.38917969 -1.85242188 8.40335938 -2.87109375 8.41796875 C-5.4375 8.1875 -5.4375 8.1875 -7.4375 6.1875 C-6.71822065 0.28940936 -5.74784881 0.03737223 0 0 Z " fill="#171717" transform="translate(170.4375,225.8125)"/>
<path d="M0 0 C1.9375 0.625 1.9375 0.625 4 2 C4.9375 4.8125 4.9375 4.8125 5 8 C3.5625 10.875 3.5625 10.875 2 13 C2.495 13.37125 2.99 13.7425 3.5 14.125 C5 16 5 16 5.5 18.875 C4.84057513 22.99640545 3.1911762 24.41666689 0 27 C-0.66 27 -1.32 27 -2 27 C-2 26.34 -2 25.68 -2 25 C-4.97 25 -7.94 25 -11 25 C-11 24.67 -11 24.34 -11 24 C-10.21753906 23.93941406 -9.43507813 23.87882812 -8.62890625 23.81640625 C-7.61699219 23.73261719 -6.60507812 23.64882813 -5.5625 23.5625 C-4.55316406 23.48128906 -3.54382813 23.40007812 -2.50390625 23.31640625 C-0.06359221 23.26788532 -0.06359221 23.26788532 1 22 C1.16666667 19 1.16666667 19 1 16 C-0.73956658 14.26043342 -3.1936622 14.62809614 -5.5625 14.4375 C-6.57441406 14.35371094 -7.58632813 14.26992188 -8.62890625 14.18359375 C-9.41136719 14.12300781 -10.19382812 14.06242187 -11 14 C-11 13.67 -11 13.34 -11 13 C-10.04287109 12.92652344 -10.04287109 12.92652344 -9.06640625 12.8515625 C-7.82697266 12.73941406 -7.82697266 12.73941406 -6.5625 12.625 C-5.73878906 12.55539062 -4.91507812 12.48578125 -4.06640625 12.4140625 C-3.38449219 12.27742188 -2.70257813 12.14078125 -2 12 C-1.67 11.34 -1.34 10.68 -1 10 C-0.34 10 0.32 10 1 10 C1.23428313 5.2102679 1.23428313 5.2102679 -1 1 C-0.67 0.67 -0.34 0.34 0 0 Z " fill="#1D1D1D" transform="translate(293,317)"/>
<path d="M0 0 C0.886875 -0.01417969 1.77375 -0.02835937 2.6875 -0.04296875 C5 0.1875 5 0.1875 7 2.1875 C6.75 4.75 6.75 4.75 6 7.1875 C3.64653604 8.36423198 2.1193967 8.35373866 -0.5 8.375 C-1.2940625 8.38917969 -2.088125 8.40335937 -2.90625 8.41796875 C-5 8.1875 -5 8.1875 -7 6.1875 C-7.125 3.5625 -7.125 3.5625 -7 1.1875 C-4.52224905 -0.05137548 -2.76346293 0.02008331 0 0 Z " fill="#181818" transform="translate(139,256.8125)"/>
<path d="M0 0 C2.49936244 2.49936244 3.03723753 4.64808008 4.125 8 C4.47820312 9.0725 4.83140625 10.145 5.1953125 11.25 C6 14 6 14 6 16 C2.7 16 -0.6 16 -4 16 C-3.47606294 10.13190493 -2.23891142 5.45126259 0 0 Z " fill="#F0F0F0" transform="translate(436,320)"/>
<path d="M0 0 C2 1 2 1 3.0703125 3.6171875 C3.59238281 5.22980469 3.59238281 5.22980469 4.125 6.875 C4.47820312 7.94492187 4.83140625 9.01484375 5.1953125 10.1171875 C6 13 6 13 6 16 C2.7 16 -0.6 16 -4 16 C-3.39891424 10.34979382 -1.92471317 5.33835539 0 0 Z " fill="#F0F0F0" transform="translate(62,320)"/>
<path d="M0 0 C1.5913526 2.3870289 2.54551181 4.28221062 3.625 6.875 C6.01181091 11.62239312 9.03858931 14.12005855 14 16 C17.67141923 16.64818205 21.27516257 16.9246816 25 17 C25 17.33 25 17.66 25 18 C22.03 18 19.06 18 16 18 C16 20.64 16 23.28 16 26 C15.67 26 15.34 26 15 26 C14.979375 25.071875 14.95875 24.14375 14.9375 23.1875 C14.4734375 21.6096875 14.4734375 21.6096875 14 20 C12.34742454 19.2728668 10.68539882 18.55893278 8.98046875 17.96484375 C3.94037132 15.50941167 0.63347617 10.54237676 -1.4375 5.5 C-1.623125 4.675 -1.80875 3.85 -2 3 C-1.34 3 -0.68 3 0 3 C0 2.01 0 1.02 0 0 Z " fill="#E1E1E1" transform="translate(312,179)"/>
<path d="M0 0 C1.40459731 2.59310273 2.54608353 5.25924537 3.625 8 C3.88539063 8.66 4.14578125 9.32 4.4140625 10 C5 12 5 12 5 16 C1.7 16 -1.6 16 -5 16 C-4.54762239 14.08191891 -4.08785537 12.16557967 -3.625 10.25 C-3.24214844 8.64898437 -3.24214844 8.64898437 -2.8515625 7.015625 C-2.12466459 4.44147278 -1.2973776 2.32399814 0 0 Z " fill="#F2F2F2" transform="translate(313,320)"/>
<path d="M0 0 C0.99 0.33 1.98 0.66 3 1 C4.16796875 3.6171875 4.16796875 3.6171875 5.1875 6.875 C5.53167969 7.94492187 5.87585938 9.01484375 6.23046875 10.1171875 C7 13 7 13 7 16 C6.01 16 5.02 16 4 16 C3.67 14.35 3.34 12.7 3 11 C-1.29 11 -5.58 11 -10 11 C-9.67 10.01 -9.34 9.02 -9 8 C-5.7 8 -2.4 8 1 8 C0.67 5.36 0.34 2.72 0 0 Z " fill="#2F2F2F" transform="translate(317,328)"/>
<path d="M0 0 C2.96826943 0.86943713 4.40215505 2.03911502 6.09375 4.61328125 C6.09375 5.93328125 6.09375 7.25328125 6.09375 8.61328125 C5.10375 8.61328125 4.11375 8.61328125 3.09375 8.61328125 C2.97 7.97390625 2.84625 7.33453125 2.71875 6.67578125 C2.5125 5.99515625 2.30625 5.31453125 2.09375 4.61328125 C-0.86289519 3.13495865 -3.64854737 3.55295342 -6.90625 3.61328125 C-7.56625 5.26328125 -8.22625 6.91328125 -8.90625 8.61328125 C-9.03 7.97390625 -9.15375 7.33453125 -9.28125 6.67578125 C-9.590625 5.65484375 -9.590625 5.65484375 -9.90625 4.61328125 C-10.56625 4.28328125 -11.22625 3.95328125 -11.90625 3.61328125 C-8.02502336 -0.5183471 -5.33658141 -0.88053593 0 0 Z " fill="#232323" transform="translate(220.90625,315.38671875)"/>
<path d="M0 0 C1.65 0 3.3 0 5 0 C5.33 1.65 5.66 3.3 6 5 C5.1028125 5.2784375 5.1028125 5.2784375 4.1875 5.5625 C0.90018201 7.72273753 0.35145313 10.35107655 -1 14 C-1.66 14 -2.32 14 -3 14 C-2.48594831 9.03083364 -1.76615118 4.70973649 0 0 Z " fill="#282828" transform="translate(434,316)"/>
<path d="M0 0 C0.33 0.66 0.66 1.32 1 2 C1.66 2 2.32 2 3 2 C-0.33333333 8.66666667 -3.66666667 15.33333333 -7 22 C-7.66 20.68 -8.32 19.36 -9 18 C-8.2575 17.071875 -7.515 16.14375 -6.75 15.1875 C-3.40313163 10.55337456 -1.74697363 5.39707496 0 0 Z " fill="#BABABA" transform="translate(322,267)"/>
<path d="M0 0 C1.43352212 0.00015908 2.86704998 0.00585132 4.30053711 0.01586914 C5.43041298 0.01799156 5.43041298 0.01799156 6.58311462 0.02015686 C8.99807646 0.02577163 11.41294687 0.03832656 13.82788086 0.05102539 C15.46134307 0.05603849 17.09480672 0.06060173 18.72827148 0.06469727 C22.74067671 0.07574585 26.75301326 0.09302033 30.76538086 0.11352539 C30.76538086 0.44352539 30.76538086 0.77352539 30.76538086 1.11352539 C29.84724609 1.12287109 28.92911133 1.1322168 27.9831543 1.1418457 C24.56832808 1.18592471 21.15474978 1.24756271 17.74047852 1.32104492 C16.2643589 1.34922627 14.78808917 1.37045505 13.31176758 1.38452148 C11.18615029 1.40599237 9.06233207 1.45265582 6.93725586 1.50415039 C5.65947266 1.52509766 4.38168945 1.54604492 3.06518555 1.56762695 C-0.71023347 2.19220796 -1.89868375 3.16016214 -4.23461914 6.11352539 C-4.27734014 4.44740634 -4.27525746 2.77969654 -4.23461914 1.11352539 C-3.23461914 0.11352539 -3.23461914 0.11352539 0 0 Z " fill="#111111" transform="translate(208.234619140625,287.886474609375)"/>
<path d="M0 0 C0.33 0 0.66 0 1 0 C1 1.65 1 3.3 1 5 C4.3 5 7.6 5 11 5 C11 5.33 11 5.66 11 6 C7.37 6 3.74 6 0 6 C-0.66 7.98 -1.32 9.96 -2 12 C-2.66 12 -3.32 12 -4 12 C-3.53439347 7.25081338 -2.83067342 3.89217595 0 0 Z " fill="#0D0D0D" transform="translate(307,332)"/>
<path d="M0 0 C1.98 0.99 1.98 0.99 4 2 C4 7.61 4 13.22 4 19 C3.34 19.33 2.68 19.66 2 20 C1.93941406 18.89140625 1.87882813 17.7828125 1.81640625 16.640625 C1.73197049 15.1770718 1.64732401 13.71353075 1.5625 12.25 C1.52318359 11.52039063 1.48386719 10.79078125 1.44335938 10.0390625 C1.23852902 6.5727027 0.9147998 3.34666974 0 0 Z " fill="#0D0D0D" transform="translate(190,317)"/>
<path d="M0 0 C1.9375 0.5625 1.9375 0.5625 4 2 C5.0625 5.3125 5.0625 5.3125 5 9 C2.5625 11.9375 2.5625 11.9375 0 14 C-0.33 13.01 -0.66 12.02 -1 11 C-0.34 10.34 0.32 9.68 1 9 C1.25288404 5.79680216 0.91026797 3.07215439 0 0 Z " fill="#1C1C1C" transform="translate(368,317)"/>
<path d="M0 0 C0.66 0.33 1.32 0.66 2 1 C2 1.99 2 2.98 2 4 C0.783125 3.938125 -0.43375 3.87625 -1.6875 3.8125 C-5.57750046 3.79177176 -7.83632249 4.62724186 -11 7 C-11 4 -11 4 -8.875 1.8125 C-5.55419254 -0.28105253 -3.85190583 -0.42798954 0 0 Z " fill="#181818" transform="translate(188,315)"/>
<path d="M0 0 C8.0740276 0.34504391 8.0740276 0.34504391 11.5625 2.8125 C13 5 13 5 13 9 C12.01 9 11.02 9 10 9 C9.54625 8.195625 9.0925 7.39125 8.625 6.5625 C7.25588956 3.74858447 7.25588956 3.74858447 4.4375 3.375 C3.633125 3.25125 2.82875 3.1275 2 3 C1.34 2.01 0.68 1.02 0 0 Z " fill="#262626" transform="translate(457,315)"/>
<path d="M0 0 C2.29633824 3.44450737 2.54016485 5.93812283 3 10 C2.01 9.67 1.02 9.34 0 9 C-0.33 8.01 -0.66 7.02 -1 6 C-5.29 5.67 -9.58 5.34 -14 5 C-14 4.67 -14 4.34 -14 4 C-13.15695313 3.96261719 -12.31390625 3.92523438 -11.4453125 3.88671875 C-9.80175781 3.78810547 -9.80175781 3.78810547 -8.125 3.6875 C-7.03445312 3.62949219 -5.94390625 3.57148438 -4.8203125 3.51171875 C-3.88960937 3.34285156 -2.95890625 3.17398437 -2 3 C-1.34 2.01 -0.68 1.02 0 0 Z " fill="#3C3C3C" transform="translate(70,334)"/>
<path d="M0 0 C0.33 0.99 0.66 1.98 1 3 C4.3 3 7.6 3 11 3 C11 3.33 11 3.66 11 4 C7.37 4 3.74 4 0 4 C-0.33 5.98 -0.66 7.96 -1 10 C-1.99 10 -2.98 10 -4 10 C-3.43454163 6.04179141 -2.19097652 3.3340947 0 0 Z " fill="#0D0D0D" transform="translate(430,334)"/>
<path d="M0 0 C0.33 0 0.66 0 1 0 C1.3125 2.6875 1.3125 2.6875 1 6 C-1.375 8.875 -1.375 8.875 -4 11 C-4.66 11 -5.32 11 -6 11 C-6 10.34 -6 9.68 -6 9 C-8.97 9 -11.94 9 -15 9 C-15 8.67 -15 8.34 -15 8 C-14.24074219 7.96261719 -13.48148437 7.92523438 -12.69921875 7.88671875 C-11.20841797 7.78810547 -11.20841797 7.78810547 -9.6875 7.6875 C-8.20830078 7.60048828 -8.20830078 7.60048828 -6.69921875 7.51171875 C-3.72440875 6.94775332 -2.78303195 6.39301656 -1 4 C-0.28552357 1.89667109 -0.28552357 1.89667109 0 0 Z " fill="#323232" transform="translate(297,333)"/>
<path d="M0 0 C6.93 0.495 6.93 0.495 14 1 C14 1.33 14 1.66 14 2 C11.03 2 8.06 2 5 2 C5 4.64 5 7.28 5 10 C4.67 10 4.34 10 4 10 C3.67 8.02 3.34 6.04 3 4 C1.68 3.67 0.36 3.34 -1 3 C-0.67 2.01 -0.34 1.02 0 0 Z " fill="#C3C3C3" transform="translate(323,195)"/>
<path d="M0 0 C0.99 0 1.98 0 3 0 C3.433125 1.2065625 3.433125 1.2065625 3.875 2.4375 C4.73262568 5.1326468 4.73262568 5.1326468 7 6 C7 6.99 7 7.98 7 9 C3.34683329 7.75023244 2.21934164 7.32901247 0 4 C0 2.68 0 1.36 0 0 Z " fill="#232323" transform="translate(208,335)"/>
<path d="M0 0 C0.87454834 0.00523682 1.74909668 0.01047363 2.65014648 0.01586914 C3.59438477 0.0190918 4.53862305 0.02231445 5.51147461 0.02563477 C6.50469727 0.03401367 7.49791992 0.04239258 8.52124023 0.05102539 C9.51833008 0.05553711 10.51541992 0.06004883 11.54272461 0.06469727 C14.01478872 0.07652532 16.48673541 0.0930069 18.95874023 0.11352539 C18.95874023 0.44352539 18.95874023 0.77352539 18.95874023 1.11352539 C18.12681152 1.12754395 18.12681152 1.12754395 17.27807617 1.1418457 C14.75407543 1.19568261 12.2319021 1.27929793 9.70874023 1.36352539 C8.83604492 1.37770508 7.96334961 1.39188477 7.06420898 1.40649414 C1.8036465 1.55519245 1.8036465 1.55519245 -2.65063477 4.16040039 C-3.10954102 4.80493164 -3.56844727 5.44946289 -4.04125977 6.11352539 C-2.97364397 0.16538027 -2.97364397 0.16538027 0 0 Z " fill="#272727" transform="translate(218.041259765625,225.886474609375)"/>
<path d="M0 0 C0.99 0 1.98 0 3 0 C3.433125 1.2065625 3.433125 1.2065625 3.875 2.4375 C4.73262568 5.1326468 4.73262568 5.1326468 7 6 C7 6.99 7 7.98 7 9 C3.34683329 7.75023244 2.21934164 7.32901247 0 4 C0 2.68 0 1.36 0 0 Z " fill="#191919" transform="translate(451,335)"/>
<path d="M0 0 C0.66 0 1.32 0 2 0 C1.625 1.9375 1.625 1.9375 1 4 C-2.21451269 5.60725635 -5.43612536 5.05748185 -9 5 C-9 4.34 -9 3.68 -9 3 C-8.43410156 2.86722656 -7.86820313 2.73445313 -7.28515625 2.59765625 C-6.18494141 2.33275391 -6.18494141 2.33275391 -5.0625 2.0625 C-4.33160156 1.88847656 -3.60070312 1.71445312 -2.84765625 1.53515625 C-1.00030102 1.16112431 -1.00030102 1.16112431 0 0 Z " fill="#0F0F0F" transform="translate(224,339)"/>
<path d="M0 0 C2.64465038 3.1254959 3.84414715 6.08788267 5 10 C4.01 10 3.02 10 2 10 C-1.07692308 4.58461538 -1.07692308 4.58461538 -0.6875 1.625 C-0.460625 1.08875 -0.23375 0.5525 0 0 Z " fill="#1F1F1F" transform="translate(368,334)"/>
<path d="M0 0 C0 0.99 0 1.98 0 3 C-2 5 -2 5 -3.9453125 5.1953125 C-5.96354167 5.13020833 -7.98177083 5.06510417 -10 5 C-10 4.34 -10 3.68 -10 3 C-6.97265625 2.26757812 -6.97265625 2.26757812 -3.9453125 1.53515625 C-1.9414343 1.05153008 -1.9414343 1.05153008 0 0 Z " fill="#090909" transform="translate(468,339)"/>
<path d="M0 0 C0.33 0 0.66 0 1 0 C0.125 7.75 0.125 7.75 -1 10 C-1.66 10 -2.32 10 -3 10 C-2.25 2.25 -2.25 2.25 0 0 Z " fill="#161616" transform="translate(434,320)"/>
<path d="M0 0 C0.66 0 1.32 0 2 0 C3.23921302 2.97411124 4.30058404 5.85262818 5 9 C1.125 7.125 1.125 7.125 0 6 C-0.04080783 4.00041636 -0.04254356 1.99954746 0 0 Z " fill="#111111" transform="translate(209,320)"/>
<path d="M0 0 C0.66 0 1.32 0 2 0 C3.85776765 3.13498292 4.20140476 5.37471432 4 9 C3.01 9.495 3.01 9.495 2 10 C1.34 6.7 0.68 3.4 0 0 Z " fill="#080808" transform="translate(66,327)"/>
<path d="M0 0 C1.41687119 4.25061356 0.19320039 6.71851625 -1 11 C-1.99 10.34 -2.98 9.68 -4 9 C-2.25 2.25 -2.25 2.25 0 0 Z " fill="#191919" transform="translate(310,324)"/>
<path d="M0 0 C0.33 0 0.66 0 1 0 C1.3125 2.6875 1.3125 2.6875 1 6 C-1.5 8.875 -1.5 8.875 -4 11 C-4.33 10.01 -4.66 9.02 -5 8 C-4.360625 7.608125 -3.72125 7.21625 -3.0625 6.8125 C-0.56221181 4.61527704 -0.35049575 3.24208567 0 0 Z " fill="#232323" transform="translate(421,320)"/>
<path d="M0 0 C0.33 0 0.66 0 1 0 C1.3125 2.6875 1.3125 2.6875 1 6 C-1.5 8.875 -1.5 8.875 -4 11 C-4.33 10.01 -4.66 9.02 -5 8 C-4.360625 7.608125 -3.72125 7.21625 -3.0625 6.8125 C-0.56221181 4.61527704 -0.35049575 3.24208567 0 0 Z " fill="#232323" transform="translate(347,320)"/>
<path d="M0 0 C1.98 0.99 1.98 0.99 4 2 C4 3.98 4 5.96 4 8 C3.01 8.495 3.01 8.495 2 9 C1.34 6.03 0.68 3.06 0 0 Z " fill="#0C0C0C" transform="translate(417,317)"/>
<path d="M0 0 C1.98 0.99 1.98 0.99 4 2 C4 3.98 4 5.96 4 8 C3.01 8.495 3.01 8.495 2 9 C1.34 6.03 0.68 3.06 0 0 Z " fill="#0C0C0C" transform="translate(343,317)"/>
<path d="M0 0 C0.33 0.66 0.66 1.32 1 2 C1.66 2.33 2.32 2.66 3 3 C2.67 4.65 2.34 6.3 2 8 C1.01 8 0.02 8 -1 8 C-2 6 -2 6 -1.0625 2.875 C-0.5365625 1.451875 -0.5365625 1.451875 0 0 Z " fill="#393939" transform="translate(430,328)"/>
<path d="M0 0 C0.99 0 1.98 0 3 0 C3.33 1.98 3.66 3.96 4 6 C3.01 6 2.02 6 1 6 C0.67 4.02 0.34 2.04 0 0 Z " fill="#222222" transform="translate(64,321)"/>
<path d="M0 0 C-0.33 2.64 -0.66 5.28 -1 8 C-1.99 7.34 -2.98 6.68 -4 6 C-3.625 3.5625 -3.625 3.5625 -3 1 C-1 0 -1 0 0 0 Z " fill="#323232" transform="translate(62,319)"/>
<path d="M0 0 C5.75 -0.125 5.75 -0.125 8 1 C8 1.99 8 2.98 8 4 C5.125 3.6875 5.125 3.6875 2 3 C1.34 2.01 0.68 1.02 0 0 Z " fill="#3C3C3C" transform="translate(182,315)"/>
</svg>
